<svg width="390" height="100" viewBox="0 0 390 100" fill="none" xmlns="http://www.w3.org/2000/svg">
<rect width="390" height="100" fill="#50A0FF"/>
<path d="M162.164 57.7637H173.361V62H156.891V36.4062H162.164V57.7637ZM175.277 52.3145C175.277 50.4277 175.641 48.7461 176.367 47.2695C177.094 45.793 178.137 44.6504 179.496 43.8418C180.867 43.0332 182.455 42.6289 184.26 42.6289C186.826 42.6289 188.918 43.4141 190.535 44.9844C192.164 46.5547 193.072 48.6875 193.26 51.3828L193.295 52.6836C193.295 55.6016 192.48 57.9453 190.852 59.7148C189.223 61.4727 187.037 62.3516 184.295 62.3516C181.553 62.3516 179.361 61.4727 177.721 59.7148C176.092 57.957 175.277 55.5664 175.277 52.543V52.3145ZM180.357 52.6836C180.357 54.4883 180.697 55.8711 181.377 56.832C182.057 57.7812 183.029 58.2559 184.295 58.2559C185.525 58.2559 186.486 57.7871 187.178 56.8496C187.869 55.9004 188.215 54.3887 188.215 52.3145C188.215 50.5449 187.869 49.1738 187.178 48.2012C186.486 47.2285 185.514 46.7422 184.26 46.7422C183.018 46.7422 182.057 47.2285 181.377 48.2012C180.697 49.1621 180.357 50.6562 180.357 52.6836ZM195.686 52.3496C195.686 49.4316 196.377 47.082 197.76 45.3008C199.154 43.5195 201.029 42.6289 203.385 42.6289C205.471 42.6289 207.094 43.3438 208.254 44.7734L208.465 42.9805H213.07V61.3672C213.07 63.0312 212.689 64.4785 211.928 65.709C211.178 66.9395 210.117 67.877 208.746 68.5215C207.375 69.166 205.77 69.4883 203.93 69.4883C202.535 69.4883 201.176 69.207 199.852 68.6445C198.527 68.0938 197.525 67.3789 196.846 66.5L199.096 63.4062C200.361 64.8242 201.896 65.5332 203.701 65.5332C205.049 65.5332 206.098 65.1699 206.848 64.4434C207.598 63.7285 207.973 62.709 207.973 61.3848V60.3652C206.801 61.6895 205.26 62.3516 203.35 62.3516C201.064 62.3516 199.213 61.4609 197.795 59.6797C196.389 57.8867 195.686 55.5137 195.686 52.5605V52.3496ZM200.766 52.7188C200.766 54.4414 201.111 55.7949 201.803 56.7793C202.494 57.752 203.443 58.2383 204.65 58.2383C206.197 58.2383 207.305 57.6582 207.973 56.498V48.5C207.293 47.3398 206.197 46.7598 204.686 46.7598C203.467 46.7598 202.506 47.2578 201.803 48.2539C201.111 49.25 200.766 50.7383 200.766 52.7188ZM216.199 52.3145C216.199 50.4277 216.562 48.7461 217.289 47.2695C218.016 45.793 219.059 44.6504 220.418 43.8418C221.789 43.0332 223.377 42.6289 225.182 42.6289C227.748 42.6289 229.84 43.4141 231.457 44.9844C233.086 46.5547 233.994 48.6875 234.182 51.3828L234.217 52.6836C234.217 55.6016 233.402 57.9453 231.773 59.7148C230.145 61.4727 227.959 62.3516 225.217 62.3516C222.475 62.3516 220.283 61.4727 218.643 59.7148C217.014 57.957 216.199 55.5664 216.199 52.543V52.3145ZM221.279 52.6836C221.279 54.4883 221.619 55.8711 222.299 56.832C222.979 57.7812 223.951 58.2559 225.217 58.2559C226.447 58.2559 227.408 57.7871 228.1 56.8496C228.791 55.9004 229.137 54.3887 229.137 52.3145C229.137 50.5449 228.791 49.1738 228.1 48.2012C227.408 47.2285 226.436 46.7422 225.182 46.7422C223.939 46.7422 222.979 47.2285 222.299 48.2012C221.619 49.1621 221.279 50.6562 221.279 52.6836Z" fill="white"/>
</svg>
